# xmcd CD database file
#
# Track frame offsets:
#	182
#	13297
#	34102
#	56367
#	80857
#	111557
#
# Disc length: 2860 seconds
#
# Revision: 10
# Processed by: cddbd v1.5.2PL0 Copyright (c) Steve Scherf et al.
# Submitted via: CDex 1.51
#
DISCID=4f0b2a06
DTITLE=Jon And Vangelis - Private Collection
DYEAR=1983
DGENRE=New Age
TTITLE0=Italian Song
TTITLE1=And When The Night Comes
TTITLE2=Deborah
TTITLE3=Polonaise
TTITLE4=He Is Sailing
TTITLE5=Horizon
EXTD=YEAR: 1983
EXTT0=
EXTT1=
EXTT2=
EXTT3=
EXTT4=
EXTT5=
PLAYORDER=
